<?xml version="1.0" encoding="utf-8" ?><svg xmlns="http://www.w3.org/2000/svg" xmlns:xlink="http://www.w3.org/1999/xlink" width="1024" height="1024" viewBox="0 0 1024 1024"><path transform="scale(2 2)" d="M270.274 297.75C270.204 297.777 270.133 297.804 270.063 297.831L269.714 297.973C265.262 299.757 259.919 303.767 255.426 306.158C180.586 345.752 85.5505 291.08 84.5107 204.099C83.7246 138.336 132.337 83.8128 199.346 82.6863C286.128 77.908 349.786 178.489 305.41 257.572C303.39 261.171 300.334 265.064 299.009 268.912L298.867 269.331C300.646 272.358 316.874 289.174 321.161 292.199C332.284 292.262 336.585 295.231 341.626 305.074C365.493 318.012 384.528 331.256 404.87 349.81C416.562 360.474 427.963 370.128 427.5 387.514C427.13 407.554 408.957 425.557 388.656 424.484C369.057 423.448 356.131 407.011 343.475 393.543C328.157 376.957 316.445 361.865 306.591 341.706C297.497 335.052 294.048 333.012 294.242 321.039C292.743 319.779 290.491 317.379 289.05 315.952L278.085 304.958C275.671 302.511 273.083 299.672 270.274 297.75ZM195.825 93.5516C136.461 96.9803 91.1506 147.939 94.6868 207.297C98.223 266.654 149.264 311.873 208.615 308.229C267.814 304.594 312.892 253.713 309.364 194.507C305.837 135.301 255.037 90.1316 195.825 93.5516ZM291.476 277.932C287.003 282.038 283.11 286.459 278.337 290.756C284.5 296.841 293.328 305.021 298.867 311.269C302.93 306.738 307.036 301.941 311.418 297.75L298.607 284.635C296.611 282.626 293.677 279.514 291.476 277.932ZM323.395 303.07C317.772 304.309 312.902 311.459 308.874 315.291C302.474 321.381 303.463 331.593 313.688 331.649C318.983 330.463 328.165 319.878 331.482 315.499C334.888 311.003 330.358 302.505 323.395 303.07ZM342.472 317.024C340.276 324.231 324.627 338.163 318.153 341.706C326.545 360.94 349.073 384.578 363.578 399.036C371.808 407.238 379.757 415.937 392.563 413.888C411.133 411.481 423.975 390.369 413.307 373.527C403.125 357.452 357.864 324.321 342.472 317.024Z"/><path transform="scale(2 2)" d="M205.626 289.279C156.705 291.228 115.484 253.112 113.603 204.189C111.722 155.265 149.894 114.096 198.82 112.283C247.652 110.472 288.723 148.554 290.6 197.383C292.478 246.212 254.452 287.335 205.626 289.279ZM196.395 122.851C157.518 126.723 123.688 158.036 124.293 198.212C127.083 198.843 129.204 199.41 131.94 200.244L132.358 200.216C148.489 199.231 152.216 201.429 168.984 193.713C193.726 182.328 210.412 149.084 199.346 122.851C198.584 122.846 197.097 122.791 196.395 122.851ZM211.127 122.851C211.846 127.844 212.979 133.06 213.203 138.022C214.821 173.787 186.653 205.174 151.605 209.94C141.054 211.375 134.763 210.557 124.293 209.069C130.969 245.651 151.741 270.631 190.018 277.932C211.338 280.71 231.887 276.612 249.125 263.199C299.649 223.887 285.788 143.994 224.267 126.059C219.959 124.803 215.346 124.17 211.127 122.851Z"/><path transform="scale(2 2)" d="M143.57 166.873C146.871 156.535 157.592 146.069 167.67 142.262C170.295 142.12 172.798 143.065 173.413 145.852C174.576 150.499 169.287 152.715 166.169 154.832C158.503 160.04 154.288 170.691 149.623 171.736C145.681 171.802 144.739 170.303 143.57 166.873Z"/><path transform="scale(2 2)" d="M394.916 387.546C394.289 383.385 393.535 380.248 398.013 378.264C410.993 377.371 404.87 398.316 393.517 403.087C390.848 403.407 387.505 401.722 386.996 399.019C386.008 393.77 392.357 392.833 394.76 387.874L394.916 387.546Z"/></svg>